<mxfile modified="2024-02-06T11:03:52.120Z" host="app.diagrams.net" agent="Mozilla/5.0 (Macintosh; Intel Mac OS X 10_15_7) AppleWebKit/537.36 (KHTML, like Gecko) Chrome/121.0.0.0 Safari/537.36" etag="LvkUEoNK-447_9EHyvBf" version="23.1.1" type="github">
  <diagram id="bNmm1fkmQvK4kZl8HyRU" name="High Level Archi">
    <mxGraphModel dx="2087" dy="682" grid="1" gridSize="10" guides="1" tooltips="1" connect="1" arrows="1" fold="1" page="1" pageScale="1" pageWidth="850" pageHeight="1100" math="0" shadow="0">
      <root>
        <mxCell id="0" />
        <mxCell id="1" parent="0" />
        <mxCell id="Wi7j-bnlnCLV__mmMoOk-24" value="" style="rounded=0;whiteSpace=wrap;html=1;" vertex="1" parent="1">
          <mxGeometry x="-150" y="380" width="660" height="400" as="geometry" />
        </mxCell>
        <mxCell id="Wi7j-bnlnCLV__mmMoOk-26" style="edgeStyle=orthogonalEdgeStyle;rounded=0;orthogonalLoop=1;jettySize=auto;html=1;" edge="1" parent="1" source="Wi7j-bnlnCLV__mmMoOk-27" target="Wi7j-bnlnCLV__mmMoOk-30">
          <mxGeometry relative="1" as="geometry" />
        </mxCell>
        <mxCell id="Wi7j-bnlnCLV__mmMoOk-27" value="" style="sketch=0;pointerEvents=1;shadow=0;dashed=0;html=1;strokeColor=none;labelPosition=center;verticalLabelPosition=bottom;verticalAlign=top;align=center;fillColor=#505050;shape=mxgraph.mscae.intune.company_portal" vertex="1" parent="1">
          <mxGeometry x="-310" y="549.69" width="100" height="68" as="geometry" />
        </mxCell>
        <mxCell id="Wi7j-bnlnCLV__mmMoOk-49" style="edgeStyle=orthogonalEdgeStyle;rounded=0;orthogonalLoop=1;jettySize=auto;html=1;" edge="1" parent="1" source="Wi7j-bnlnCLV__mmMoOk-30" target="Wi7j-bnlnCLV__mmMoOk-27">
          <mxGeometry relative="1" as="geometry" />
        </mxCell>
        <mxCell id="Wi7j-bnlnCLV__mmMoOk-54" style="edgeStyle=orthogonalEdgeStyle;rounded=0;orthogonalLoop=1;jettySize=auto;html=1;" edge="1" parent="1" source="Wi7j-bnlnCLV__mmMoOk-30" target="Wi7j-bnlnCLV__mmMoOk-32">
          <mxGeometry relative="1" as="geometry">
            <Array as="points">
              <mxPoint x="-40" y="476" />
            </Array>
          </mxGeometry>
        </mxCell>
        <mxCell id="Wi7j-bnlnCLV__mmMoOk-56" style="edgeStyle=orthogonalEdgeStyle;rounded=0;orthogonalLoop=1;jettySize=auto;html=1;" edge="1" parent="1" source="Wi7j-bnlnCLV__mmMoOk-30" target="Wi7j-bnlnCLV__mmMoOk-53">
          <mxGeometry relative="1" as="geometry">
            <Array as="points">
              <mxPoint x="-40" y="684" />
            </Array>
          </mxGeometry>
        </mxCell>
        <mxCell id="Wi7j-bnlnCLV__mmMoOk-30" value="WAF" style="sketch=0;outlineConnect=0;fontColor=#232F3E;gradientColor=none;fillColor=#232F3D;strokeColor=none;dashed=0;verticalLabelPosition=bottom;verticalAlign=top;align=center;html=1;fontSize=12;fontStyle=0;aspect=fixed;pointerEvents=1;shape=mxgraph.aws4.generic_firewall;" vertex="1" parent="1">
          <mxGeometry x="-80" y="550" width="80" height="67.69" as="geometry" />
        </mxCell>
        <mxCell id="Wi7j-bnlnCLV__mmMoOk-31" style="edgeStyle=orthogonalEdgeStyle;rounded=0;orthogonalLoop=1;jettySize=auto;html=1;" edge="1" parent="1" source="Wi7j-bnlnCLV__mmMoOk-32" target="Wi7j-bnlnCLV__mmMoOk-33">
          <mxGeometry relative="1" as="geometry" />
        </mxCell>
        <mxCell id="Wi7j-bnlnCLV__mmMoOk-47" style="edgeStyle=orthogonalEdgeStyle;rounded=0;orthogonalLoop=1;jettySize=auto;html=1;" edge="1" parent="1" source="Wi7j-bnlnCLV__mmMoOk-32" target="Wi7j-bnlnCLV__mmMoOk-30">
          <mxGeometry relative="1" as="geometry" />
        </mxCell>
        <mxCell id="Wi7j-bnlnCLV__mmMoOk-32" value="Cloud&#xa;CDN" style="sketch=0;html=1;verticalAlign=top;labelPosition=center;verticalLabelPosition=bottom;align=center;spacingTop=-6;fontSize=11;fontStyle=1;fontColor=#999999;shape=image;aspect=fixed;imageAspect=0;image=data:image/svg+xml,PHN2ZyB4bWxucz0iaHR0cDovL3d3dy53My5vcmcvMjAwMC9zdmciIHhtbG5zOnY9Imh0dHBzOi8vdmVjdGEuaW8vbmFubyIgd2lkdGg9IjIwIiBoZWlnaHQ9IjIwIiB2aWV3Qm94PSIwIDAgMjAgMjAiPiYjeGE7CTxzdHlsZSB0eXBlPSJ0ZXh0L2NzcyI+JiN4YTsJLnN0MHtmaWxsOiM0Mjg1ZjQ7fSYjeGE7CS5zdDF7ZmlsbDojNjY5ZGY2O30mI3hhOwkuc3Qye2ZpbGw6I2FlY2JmYTt9JiN4YTsJPC9zdHlsZT4mI3hhOwk8cGF0aCBjbGFzcz0ic3QxIiBkPSJNMTMuMTMgNS42M1YzLjIxTDEwIDB2Mi40MXptMy43NSA3LjVMMjAgMTBoLTIuNWwtMy4xMiAzLjEzem0tMTMuNzUgMEwwIDEwaDIuNWwzLjEzIDMuMTN6bTEwIDEuMjV2Mi40MUwxMCAyMHYtMi40MXoiIGZpbGwtcnVsZT0iZXZlbm9kZCIvPiYjeGE7CTxwYXRoIGNsYXNzPSJzdDIiIGQ9Ik02Ljg4IDUuNjNMMTAgMi40MVYwTDYuODggMy4yMXpNMTcuNSAxMEgyMGwtMy4xMi0zLjEyaC0yLjV6bS0xNSAwSDBsMy4xMy0zLjEyaDIuNXptNC4zOCA0LjM4TDEwIDE3LjU5VjIwbC0zLjEyLTMuMjF6bTAtNy41aDYuMjV2Ni4yNUg2Ljg4eiIgZmlsbC1ydWxlPSJldmVub2RkIi8+JiN4YTsJPHBhdGggY2xhc3M9InN0MSIgZD0iTTYuODggMTMuMTNsNi4yNS02LjI1djYuMjV6IiBmaWxsLXJ1bGU9ImV2ZW5vZGQiLz4mI3hhOwk8cGF0aCBjbGFzcz0ic3QwIiBkPSJNMTAgMTBsMy4xMy0zLjEydjYuMjV6IiBmaWxsLXJ1bGU9ImV2ZW5vZGQiLz4mI3hhOzwvc3ZnPg==;" vertex="1" parent="1">
          <mxGeometry x="86.25" y="406" width="140" height="140" as="geometry" />
        </mxCell>
        <mxCell id="Wi7j-bnlnCLV__mmMoOk-48" style="edgeStyle=orthogonalEdgeStyle;rounded=0;orthogonalLoop=1;jettySize=auto;html=1;" edge="1" parent="1" source="Wi7j-bnlnCLV__mmMoOk-33" target="Wi7j-bnlnCLV__mmMoOk-32">
          <mxGeometry relative="1" as="geometry" />
        </mxCell>
        <mxCell id="Wi7j-bnlnCLV__mmMoOk-33" value="S3 Bucket" style="sketch=0;outlineConnect=0;fontColor=#232F3E;gradientColor=none;fillColor=#7AA116;strokeColor=none;dashed=0;verticalLabelPosition=bottom;verticalAlign=top;align=center;html=1;fontSize=12;fontStyle=0;aspect=fixed;pointerEvents=1;shape=mxgraph.aws4.bucket;" vertex="1" parent="1">
          <mxGeometry x="400" y="437" width="75" height="78" as="geometry" />
        </mxCell>
        <mxCell id="Wi7j-bnlnCLV__mmMoOk-34" value="AWS" style="text;html=1;strokeColor=none;fillColor=none;align=center;verticalAlign=middle;whiteSpace=wrap;rounded=0;" vertex="1" parent="1">
          <mxGeometry x="-150" y="380" width="60" height="30" as="geometry" />
        </mxCell>
        <mxCell id="Wi7j-bnlnCLV__mmMoOk-35" value="Learner" style="shape=umlActor;verticalLabelPosition=bottom;verticalAlign=top;html=1;outlineConnect=0;" vertex="1" parent="1">
          <mxGeometry x="-470" y="470.00000000000006" width="30" height="60" as="geometry" />
        </mxCell>
        <mxCell id="Wi7j-bnlnCLV__mmMoOk-41" value="Instructor/Admin" style="shape=umlActor;verticalLabelPosition=bottom;verticalAlign=top;html=1;outlineConnect=0;" vertex="1" parent="1">
          <mxGeometry x="-480" y="640" width="30" height="60" as="geometry" />
        </mxCell>
        <mxCell id="Wi7j-bnlnCLV__mmMoOk-55" style="edgeStyle=orthogonalEdgeStyle;rounded=0;orthogonalLoop=1;jettySize=auto;html=1;" edge="1" parent="1" source="Wi7j-bnlnCLV__mmMoOk-53" target="Wi7j-bnlnCLV__mmMoOk-30">
          <mxGeometry relative="1" as="geometry" />
        </mxCell>
        <mxCell id="Wi7j-bnlnCLV__mmMoOk-58" style="edgeStyle=orthogonalEdgeStyle;rounded=0;orthogonalLoop=1;jettySize=auto;html=1;" edge="1" parent="1" source="Wi7j-bnlnCLV__mmMoOk-53" target="Wi7j-bnlnCLV__mmMoOk-57">
          <mxGeometry relative="1" as="geometry" />
        </mxCell>
        <mxCell id="Wi7j-bnlnCLV__mmMoOk-53" value="&lt;br&gt;&lt;br&gt;&lt;br&gt;&lt;br&gt;&lt;br&gt;&lt;br&gt;&lt;br&gt;&lt;br&gt;&lt;br&gt;API" style="aspect=fixed;sketch=0;html=1;dashed=0;whitespace=wrap;fillColor=#2875E2;strokeColor=#ffffff;points=[[0.005,0.63,0],[0.1,0.2,0],[0.9,0.2,0],[0.5,0,0],[0.995,0.63,0],[0.72,0.99,0],[0.5,1,0],[0.28,0.99,0]];shape=mxgraph.kubernetes.icon2;prIcon=api" vertex="1" parent="1">
          <mxGeometry x="113.75" y="630" width="112.5" height="108" as="geometry" />
        </mxCell>
        <mxCell id="Wi7j-bnlnCLV__mmMoOk-61" style="edgeStyle=orthogonalEdgeStyle;rounded=0;orthogonalLoop=1;jettySize=auto;html=1;" edge="1" parent="1" source="Wi7j-bnlnCLV__mmMoOk-57" target="Wi7j-bnlnCLV__mmMoOk-53">
          <mxGeometry relative="1" as="geometry" />
        </mxCell>
        <mxCell id="Wi7j-bnlnCLV__mmMoOk-57" value="DB" style="strokeWidth=2;html=1;shape=mxgraph.flowchart.database;whiteSpace=wrap;" vertex="1" parent="1">
          <mxGeometry x="415" y="644" width="60" height="80" as="geometry" />
        </mxCell>
        <mxCell id="Wi7j-bnlnCLV__mmMoOk-63" style="edgeStyle=orthogonalEdgeStyle;rounded=0;orthogonalLoop=1;jettySize=auto;html=1;entryX=0.5;entryY=0;entryDx=0;entryDy=0;entryPerimeter=0;" edge="1" parent="1" source="Wi7j-bnlnCLV__mmMoOk-35" target="Wi7j-bnlnCLV__mmMoOk-27">
          <mxGeometry relative="1" as="geometry" />
        </mxCell>
        <mxCell id="Wi7j-bnlnCLV__mmMoOk-64" style="edgeStyle=orthogonalEdgeStyle;rounded=0;orthogonalLoop=1;jettySize=auto;html=1;entryX=0.5;entryY=1;entryDx=0;entryDy=0;entryPerimeter=0;" edge="1" parent="1" source="Wi7j-bnlnCLV__mmMoOk-41" target="Wi7j-bnlnCLV__mmMoOk-27">
          <mxGeometry relative="1" as="geometry" />
        </mxCell>
      </root>
    </mxGraphModel>
  </diagram>
</mxfile>
